<?xml version="1.0" encoding="UTF-8" standalone="no"?>
<svg
   xmlns:dc="http://purl.org/dc/elements/1.1/"
   xmlns:cc="http://creativecommons.org/ns#"
   xmlns:rdf="http://www.w3.org/1999/02/22-rdf-syntax-ns#"
   xmlns:svg="http://www.w3.org/2000/svg"
   xmlns="http://www.w3.org/2000/svg"
   xmlns:sodipodi="http://sodipodi.sourceforge.net/DTD/sodipodi-0.dtd"
   xmlns:inkscape="http://www.inkscape.org/namespaces/inkscape"
   sodipodi:docname="303_waterhole.svg"
   inkscape:version="1.0beta1 (32d4812, 2019-09-19)"
   id="svg8"
   version="1.1"
   viewBox="0 0 100 120"
   height="12cm"
   width="10cm">
  <defs
     id="defs2" />
  <sodipodi:namedview
     inkscape:window-maximized="0"
     inkscape:window-y="156"
     inkscape:window-x="664"
     inkscape:window-height="1209"
     inkscape:window-width="1600"
     showguides="false"
     width="10mm"
     units="cm"
     showgrid="true"
     inkscape:document-rotation="0"
     inkscape:current-layer="layer1"
     inkscape:document-units="mm"
     inkscape:cy="196.93981"
     inkscape:cx="104.46793"
     inkscape:zoom="1.979899"
     inkscape:pageshadow="2"
     inkscape:pageopacity="0.0"
     borderopacity="1.0"
     bordercolor="#666666"
     pagecolor="#ffffff"
     id="base">
    <inkscape:grid
       spacingy="5"
       spacingx="5"
       units="mm"
       dotted="true"
       id="grid14"
       type="xygrid"
       enabled="false" />
  </sodipodi:namedview>
  <metadata
     id="metadata5">
    <rdf:RDF>
      <cc:Work
         rdf:about="">
        <dc:format>image/svg+xml</dc:format>
        <dc:type
           rdf:resource="http://purl.org/dc/dcmitype/StillImage" />
        <dc:title></dc:title>
      </cc:Work>
    </rdf:RDF>
  </metadata>
  <g
     id="layer1"
     inkscape:groupmode="layer"
     inkscape:label="Layer 1">
    <path
       inkscape:connector-curvature="0"
       id="path899"
       d="M 49.73181,118.8714 C 46.006175,109.98014 0.42765931,0.54133336 0.38294131,0.37958039 0.32165131,0.15786937 1.0845383,0.14582127 15.067108,0.14767723 l 14.748819,0.001958 9.811649,24.55342977 c 5.39641,13.504387 9.926788,24.82404 10.06751,25.154787 l 0.255857,0.601356 10.05124,-25.123336 10.051238,-25.12333505 14.790248,-0.0339917 14.79025,-0.0339917 -0.118348,0.30126128 C 99.450481,0.6115084 88.272073,27.44334 74.674665,60.072105 L 49.952107,119.39714 Z"
       style="fill:#00f5f5;fill-opacity:1;stroke:#00ffff;stroke-width:0.133635;stroke-opacity:1;image-rendering:auto" />
    <path
       style="fill:#ffffff;fill-opacity:0;stroke:#000000;stroke-width:0.505076;stroke-opacity:0"
       d="m 187.96275,449.27773 c -0.5062,-0.83238 -1.10729,-1.34377 -1.33574,-1.13643 -0.22846,0.20735 -0.27266,-0.0208 -0.0982,-0.50688 0.44709,-1.24598 -0.14418,-2.72456 -0.72384,-1.81012 -0.31959,0.50416 -0.44782,0.41949 -0.50958,-0.33646 -0.0454,-0.55558 -0.12885,-1.35108 -0.18548,-1.76777 -0.0566,-0.41668 -0.13663,-1.05513 -0.17776,-1.41877 -0.0418,-0.36936 -0.33557,-0.49998 -0.66569,-0.29594 -0.39732,0.24555 -0.48525,0.0899 -0.26839,-0.47528 0.17738,-0.46225 0.18438,-1.20045 0.0156,-1.64043 -0.24716,-0.64408 -0.39019,-0.66868 -0.73403,-0.12627 -0.31959,0.50416 -0.44782,0.4195 -0.50957,-0.33645 -0.0454,-0.55559 -0.12886,-1.35108 -0.18549,-1.76777 -0.0566,-0.41669 -0.13663,-1.05514 -0.17776,-1.41877 -0.0411,-0.36363 -0.27568,-0.53699 -0.52124,-0.38523 -0.61615,0.38081 -1.76024,-2.53656 -1.29192,-3.29432 0.23268,-0.37648 0.16795,-0.48302 -0.16752,-0.27569 -0.66192,0.40909 -1.33707,-1.44967 -0.82658,-2.27565 0.24264,-0.3926 0.14116,-0.45042 -0.30577,-0.1742 -0.48978,0.30269 -0.57987,0.18129 -0.33636,-0.45328 0.18332,-0.47772 0.12482,-0.7383 -0.13035,-0.5806 -0.56368,0.34838 -1.23041,-1.53841 -0.79345,-2.24542 0.17186,-0.27808 0.0798,-0.90514 -0.20458,-1.39348 -0.41059,-0.70506 -0.52681,-0.73188 -0.56443,-0.13027 -0.0268,0.42837 -0.25338,0.24348 -0.52141,-0.42545 -0.26072,-0.65069 -0.32484,-1.42448 -0.14249,-1.71954 0.18727,-0.303 0.0936,-0.38941 -0.21519,-0.19856 -0.62471,0.38609 -1.35031,-1.42825 -0.87729,-2.19361 0.17187,-0.27808 0.0798,-0.90515 -0.20457,-1.39348 -0.41059,-0.70506 -0.52681,-0.73189 -0.56443,-0.13027 -0.0268,0.42837 -0.25338,0.24347 -0.52142,-0.42545 -0.26072,-0.65069 -0.32484,-1.42449 -0.14248,-1.71954 0.18726,-0.303 0.0936,-0.38941 -0.2152,-0.19856 -0.66191,0.40908 -1.33706,-1.44968 -0.82657,-2.27566 0.21739,-0.35174 0.1437,-0.45199 -0.18358,-0.24972 -0.66191,0.40908 -1.33706,-1.44968 -0.82658,-2.27566 0.24265,-0.3926 0.14116,-0.45042 -0.30576,-0.1742 -0.48978,0.3027 -0.57987,0.1813 -0.33636,-0.45327 0.18331,-0.47772 0.12482,-0.7383 -0.13035,-0.5806 -0.60036,0.37104 -1.21676,-1.5605 -0.74275,-2.32746 0.21739,-0.35175 0.14369,-0.452 -0.18358,-0.24973 -0.66191,0.40909 -1.33706,-1.44967 -0.82658,-2.27565 0.24265,-0.39261 0.14116,-0.45042 -0.30576,-0.17421 -0.48978,0.3027 -0.57987,0.1813 -0.33637,-0.45327 0.18332,-0.47772 0.12482,-0.7383 -0.13034,-0.5806 -0.60036,0.37105 -1.21676,-1.5605 -0.74276,-2.32746 0.21739,-0.35174 0.1437,-0.45199 -0.18357,-0.24972 -0.66191,0.40908 -1.33706,-1.44968 -0.82658,-2.27566 0.24265,-0.3926 0.14116,-0.45042 -0.30577,-0.1742 -0.48977,0.3027 -0.57986,0.1813 -0.33636,-0.45327 0.18332,-0.47772 0.12482,-0.7383 -0.13034,-0.5806 -0.60036,0.37104 -1.21677,-1.5605 -0.74276,-2.32746 0.21739,-0.35175 0.1437,-0.452 -0.18357,-0.24973 -0.66191,0.40909 -1.33707,-1.44967 -0.82658,-2.27566 0.24264,-0.3926 0.14116,-0.45041 -0.30577,-0.1742 -0.48978,0.3027 -0.57987,0.1813 -0.33636,-0.45327 0.18332,-0.47772 0.12482,-0.7383 -0.13034,-0.5806 -0.60036,0.37105 -1.21677,-1.5605 -0.74276,-2.32746 0.21739,-0.35174 0.1437,-0.45199 -0.18357,-0.24972 -0.66192,0.40908 -1.33707,-1.44968 -0.82658,-2.27566 0.24264,-0.3926 0.14116,-0.45042 -0.30577,-0.1742 -0.48978,0.3027 -0.57987,0.1813 -0.33636,-0.45327 0.18292,-0.47669 0.13703,-0.74585 -0.10198,-0.59813 -0.59574,0.36818 -2.24375,-4.08701 -1.78587,-4.82787 0.2174,-0.35177 0.15099,-0.4611 -0.16242,-0.2674 -0.63645,0.39335 -1.28319,-1.04832 -0.81217,-1.81045 0.18272,-0.29565 0.11109,-0.40088 -0.15916,-0.23385 -0.62735,0.38772 -1.86851,-2.97762 -1.38606,-3.75824 0.21216,-0.34327 0.14257,-0.45031 -0.16799,-0.25838 -0.63645,0.39335 -1.28319,-1.04831 -0.81217,-1.81044 0.18272,-0.29565 0.11109,-0.40088 -0.15916,-0.23385 -0.62735,0.38772 -1.86851,-2.97763 -1.38606,-3.75824 0.21216,-0.34328 0.14257,-0.45032 -0.16799,-0.25838 -0.63646,0.39335 -1.2832,-1.04832 -0.81218,-1.81045 0.18273,-0.29565 0.1111,-0.40088 -0.15916,-0.23385 -0.62734,0.38772 -1.8685,-2.97762 -1.38605,-3.75824 0.21216,-0.34327 0.14257,-0.45031 -0.16799,-0.25838 -0.63646,0.39335 -1.2832,-1.04832 -0.81218,-1.81044 0.18272,-0.29565 0.1111,-0.40088 -0.15916,-0.23386 -0.62734,0.38773 -1.8685,-2.97762 -1.38605,-3.75823 0.21215,-0.34328 0.14257,-0.45032 -0.16799,-0.25838 -0.63646,0.39335 -1.2832,-1.04832 -0.81218,-1.81045 0.18272,-0.29565 0.1111,-0.40088 -0.15916,-0.23385 -0.62734,0.38772 -1.8685,-2.97762 -1.38605,-3.75824 0.21215,-0.34327 0.14256,-0.45031 -0.16799,-0.25838 -0.63646,0.39335 -1.2832,-1.04832 -0.81218,-1.81045 0.18272,-0.29564 0.1111,-0.40087 -0.15916,-0.23385 -0.62735,0.38773 -1.8685,-2.97762 -1.38606,-3.75823 0.21216,-0.34328 0.14257,-0.45032 -0.16798,-0.25838 -0.63646,0.39335 -1.2832,-1.04832 -0.81218,-1.81045 0.18272,-0.29565 0.11109,-0.40088 -0.15916,-0.23385 -0.62735,0.38772 -1.86851,-2.97762 -1.38606,-3.75824 0.21216,-0.34327 0.14257,-0.45031 -0.16799,-0.25838 -0.63645,0.39335 -1.28319,-1.04832 -0.81217,-1.81045 0.21001,-0.3398 0.0885,-0.38688 -0.33046,-0.12798 -0.49369,0.30512 -0.59,0.13165 -0.37768,-0.68027 0.15675,-0.5994 0.0953,-0.97257 -0.13661,-0.82926 -0.57015,0.35237 -1.15693,-1.61601 -0.70144,-2.353 0.24264,-0.3926 0.14116,-0.45041 -0.30577,-0.1742 -0.48978,0.3027 -0.57987,0.1813 -0.33636,-0.45327 0.18332,-0.47772 0.12482,-0.7383 -0.13035,-0.5806 -0.60036,0.37104 -1.21676,-1.5605 -0.74275,-2.32746 0.21739,-0.35175 0.1437,-0.45199 -0.18358,-0.24973 -0.66191,0.40909 -1.33706,-1.44967 -0.82657,-2.27565 0.24264,-0.3926 0.14115,-0.45042 -0.30577,-0.1742 -0.48978,0.30269 -0.57987,0.18129 -0.33636,-0.45327 0.18292,-0.47669 0.13702,-0.74585 -0.10198,-0.59813 -0.59574,0.36818 -2.24375,-4.08701 -1.78588,-4.82787 0.21741,-0.35177 0.151,-0.4611 -0.16241,-0.26741 -0.63646,0.39336 -1.2832,-1.04831 -0.81218,-1.81044 0.18272,-0.29565 0.1111,-0.40088 -0.15916,-0.23385 -0.62734,0.38772 -1.8685,-2.97762 -1.38605,-3.75824 0.21216,-0.34327 0.14257,-0.45031 -0.16799,-0.25838 -0.63646,0.39335 -1.2832,-1.04832 -0.81218,-1.81045 0.18272,-0.29564 0.1111,-0.40088 -0.15916,-0.23385 -0.62734,0.38772 -1.8685,-2.97762 -1.38605,-3.75823 0.21215,-0.34328 0.14256,-0.45032 -0.16799,-0.25839 -0.63646,0.39336 -1.2832,-1.04831 -0.81218,-1.81044 0.18272,-0.29565 0.1111,-0.40088 -0.15916,-0.23385 -0.62734,0.38772 -1.8685,-2.97762 -1.38605,-3.75824 0.21215,-0.34327 0.14256,-0.45032 -0.16799,-0.25838 -0.63646,0.39335 -1.2832,-1.04832 -0.81218,-1.81045 0.18272,-0.29564 0.1111,-0.40088 -0.15916,-0.23385 -0.62735,0.38772 -1.86851,-2.97762 -1.38606,-3.75823 0.21216,-0.34328 0.14257,-0.45032 -0.16798,-0.25839 -0.63646,0.39336 -1.2832,-1.04831 -0.81218,-1.81044 0.21001,-0.33981 0.0885,-0.38689 -0.33046,-0.12798 -0.49369,0.30511 -0.59,0.13164 -0.37768,-0.68028 0.15675,-0.5994 0.0953,-0.97257 -0.13661,-0.82926 -0.57015,0.35238 -1.15693,-1.616 -0.70144,-2.35299 0.24264,-0.3926 0.14116,-0.45042 -0.30577,-0.1742 -0.48978,0.30269 -0.57987,0.18129 -0.33636,-0.45328 0.18332,-0.47772 0.12482,-0.7383 -0.13035,-0.5806 -0.60036,0.37105 -1.21676,-1.56049 -0.74275,-2.32746 0.21739,-0.35174 0.1437,-0.45199 -0.18358,-0.24972 -0.66191,0.40908 -1.33706,-1.44968 -0.82657,-2.27566 0.24264,-0.3926 0.14115,-0.45042 -0.30577,-0.1742 -0.48978,0.3027 -0.57987,0.1813 -0.33636,-0.45327 0.18331,-0.47772 0.12482,-0.7383 -0.13035,-0.5806 -0.60036,0.37104 -1.21676,-1.5605 -0.74275,-2.32746 0.21739,-0.35175 0.1437,-0.452 -0.18358,-0.24973 -0.66191,0.40909 -1.33706,-1.44967 -0.82658,-2.27565 0.24265,-0.39261 0.14116,-0.45042 -0.30576,-0.17421 -0.48978,0.3027 -0.57987,0.1813 -0.33636,-0.45327 0.18331,-0.47772 0.12482,-0.7383 -0.13035,-0.5806 -0.60036,0.37105 -1.21676,-1.5605 -0.74275,-2.32746 0.21307,-0.34476 0.14404,-0.4522 -0.16702,-0.25996 -0.68142,0.42115 -1.20659,-0.92848 -0.78689,-2.02222 0.20051,-0.52251 0.12115,-0.71602 -0.20977,-0.51149 -0.67736,0.41863 -1.88451,-2.42132 -1.37775,-3.24128 0.22817,-0.36919 0.16804,-0.48308 -0.15097,-0.28592 -0.68142,0.42114 -1.2066,-0.92849 -0.78689,-2.02222 0.20051,-0.52252 0.12115,-0.71602 -0.20978,-0.5115 -0.67735,0.41863 -1.88451,-2.42131 -1.37774,-3.24127 0.22817,-0.36919 0.16804,-0.48308 -0.15097,-0.28593 -0.68142,0.42115 -1.2066,-0.92848 -0.78689,-2.02222 0.20051,-0.52251 0.12115,-0.71602 -0.20978,-0.51149 -0.67735,0.41863 -1.88451,-2.42132 -1.37774,-3.24128 0.22816,-0.36919 0.16803,-0.48308 -0.15097,-0.28592 -0.68143,0.42114 -1.2066,-0.92849 -0.7869,-2.02222 0.20115,-0.52416 0.12143,-0.71619 -0.21181,-0.51023 -0.68345,0.42239 -2.89862,-4.93826 -2.38443,-5.77023 0.22683,-0.36702 0.16593,-0.48036 -0.1524,-0.28362 -0.63645,0.39335 -1.28319,-1.04831 -0.81217,-1.81044 0.18272,-0.29565 0.11109,-0.40088 -0.15916,-0.23385 -0.62735,0.38772 -1.86851,-2.97763 -1.38606,-3.75824 0.21216,-0.34328 0.14257,-0.45032 -0.16799,-0.25838 -0.63645,0.39335 -1.283194,-1.04832 -0.81217,-1.81045 0.21001,-0.3398 0.0885,-0.38688 -0.33047,-0.12798 -0.493683,0.30512 -0.589991,0.13164 -0.377672,-0.68027 0.156746,-0.59941 0.09527,-0.97257 -0.136613,-0.82926 -0.570145,0.35237 -1.156927,-1.61601 -0.70144,-2.353 0.242644,-0.3926 0.141159,-0.45042 -0.305768,-0.1742 -0.489777,0.3027 -0.579868,0.1813 -0.33636,-0.45327 0.183317,-0.47772 0.124819,-0.7383 -0.130345,-0.5806 -0.600359,0.37104 -1.216764,-1.5605 -0.742755,-2.32747 0.21739,-0.35174 0.143699,-0.45199 -0.183575,-0.24972 -0.661913,0.40909 -1.337063,-1.44967 -0.826578,-2.27566 0.242644,-0.3926 0.141159,-0.45041 -0.305768,-0.1742 -0.489777,0.3027 -0.579868,0.1813 -0.336361,-0.45327 0.183318,-0.47772 0.12482,-0.7383 -0.130345,-0.5806 -0.600359,0.37105 -1.216764,-1.5605 -0.742755,-2.32746 0.21739,-0.35175 0.1437,-0.45199 -0.183575,-0.24973 -0.661912,0.40909 -1.337063,-1.44967 -0.826577,-2.27565 0.242643,-0.3926 0.141159,-0.45042 -0.305768,-0.1742 -0.489778,0.30269 -0.579868,0.18129 -0.336361,-0.45327 0.183318,-0.47772 0.12482,-0.7383 -0.130345,-0.5806 -0.600359,0.37104 -1.216764,-1.5605 -0.742755,-2.32747 0.21739,-0.35174 0.143699,-0.45199 -0.183575,-0.24972 -0.661913,0.40909 -1.337063,-1.44968 -0.826578,-2.27566 0.242644,-0.3926 0.141159,-0.45041 -0.305768,-0.1742 -0.489777,0.3027 -0.579868,0.1813 -0.33636,-0.45327 0.183317,-0.47772 0.124819,-0.7383 -0.130345,-0.5806 -0.600359,0.37105 -1.216764,-1.5605 -0.742755,-2.32746 0.21739,-0.35175 0.143699,-0.45199 -0.183575,-0.24973 -0.661913,0.40909 -1.337064,-1.44967 -0.826578,-2.27565 0.242644,-0.3926 0.141159,-0.45042 -0.305768,-0.1742 -0.489778,0.30269 -0.579868,0.18129 -0.336361,-0.45327 0.183318,-0.47772 0.12482,-0.7383 -0.130345,-0.5806 -0.600359,0.37104 -1.216764,-1.5605 -0.742755,-2.32747 0.21739,-0.35174 0.1437,-0.45199 -0.183575,-0.24972 -0.661912,0.40909 -1.337063,-1.44968 -0.826577,-2.27566 0.242643,-0.3926 0.141158,-0.45041 -0.305768,-0.1742 -0.489778,0.3027 -0.579868,0.1813 -0.336361,-0.45327 0.183317,-0.47772 0.12482,-0.7383 -0.130345,-0.5806 -0.600359,0.37105 -1.216764,-1.5605 -0.742755,-2.32746 0.21739,-0.35175 0.143699,-0.45199 -0.183575,-0.24973 -0.661913,0.40909 -1.337063,-1.44967 -0.826578,-2.27565 0.242644,-0.3926 0.141159,-0.45042 -0.305768,-0.1742 -0.489777,0.30269 -0.579868,0.18129 -0.33636,-0.45327 0.183317,-0.47773 0.124819,-0.7383 -0.130345,-0.5806 -0.600359,0.37104 -1.216764,-1.5605 -0.742755,-2.32747 0.217389,-0.35174 0.143699,-0.45199 -0.183575,-0.24972 -0.661913,0.40909 -1.337064,-1.44968 -0.826578,-2.27566 0.242644,-0.3926 0.141159,-0.45041 -0.305768,-0.1742 -0.489778,0.3027 -0.579868,0.1813 -0.336361,-0.45327 0.183318,-0.47772 0.12482,-0.7383 -0.130345,-0.5806 -0.600359,0.37104 -1.216764,-1.5605 -0.742755,-2.32746 0.21739,-0.35175 0.1437,-0.45199 -0.183575,-0.24973 -0.661912,0.40909 -1.337063,-1.44967 -0.826577,-2.27565 0.242643,-0.3926 0.141158,-0.45042 -0.305768,-0.1742 -0.489778,0.30269 -0.579868,0.18129 -0.336361,-0.45327 0.183317,-0.47773 0.12482,-0.7383 -0.130345,-0.5806 -0.600359,0.37104 -1.216764,-1.5605 -0.742755,-2.32747 0.21739,-0.35174 0.143699,-0.45199 -0.183575,-0.24972 -0.661913,0.40908 -1.337063,-1.44968 -0.826578,-2.27566 0.242644,-0.3926 0.141159,-0.45042 -0.305768,-0.1742 -0.489777,0.3027 -0.579868,0.1813 -0.33636,-0.45327 0.183317,-0.47772 0.124819,-0.7383 -0.130345,-0.5806 -0.600359,0.37104 -1.216764,-1.5605 -0.742755,-2.32746 0.217389,-0.35175 0.143699,-0.45199 -0.183575,-0.24973 -0.661913,0.40909 -1.337064,-1.44967 -0.826578,-2.27565 0.242644,-0.3926 0.141159,-0.45042 -0.305768,-0.1742 -0.489778,0.30269 -0.579868,0.18129 -0.336361,-0.45327 0.183318,-0.47773 0.12482,-0.73831 -0.130345,-0.58061 -0.600359,0.37105 -1.216764,-1.56049 -0.742755,-2.32746 0.21739,-0.35174 0.143699,-0.45199 -0.183575,-0.24972 -0.661912,0.40908 -1.337063,-1.44968 -0.826577,-2.27566 0.242643,-0.3926 0.141158,-0.45042 -0.305768,-0.1742 -0.489778,0.3027 -0.579868,0.1813 -0.336361,-0.45327 0.183317,-0.47772 0.124819,-0.7383 -0.130345,-0.5806 -0.600359,0.37104 -1.216764,-1.5605 -0.742755,-2.32746 0.21739,-0.35175 0.143699,-0.452 -0.183575,-0.24973 -0.661913,0.40909 -1.337063,-1.44967 -0.826578,-2.27565 0.242644,-0.3926 0.141159,-0.45042 -0.305768,-0.1742 -0.489777,0.30269 -0.579868,0.18129 -0.33636,-0.45328 0.182918,-0.47668 0.137027,-0.74584 -0.10198,-0.59812 -0.595738,0.36818 -2.243751,-4.08701 -1.785874,-4.82787 0.217405,-0.35177 0.150997,-0.4611 -0.162413,-0.26741 -0.636456,0.39336 -1.283196,-1.04831 -0.812177,-1.81044 0.182721,-0.29565 0.111096,-0.40088 -0.15916,-0.23385 -0.627345,0.38772 -1.868504,-2.97762 -1.386056,-3.75824 0.212158,-0.34328 0.142568,-0.45032 -0.167988,-0.25838 -0.636457,0.39335 -1.283197,-1.04832 -0.812178,-1.81045 0.210016,-0.3398 0.08846,-0.38688 -0.330461,-0.12798 -0.493687,0.30512 -0.589995,0.13164 -0.377676,-0.68027 0.156746,-0.59941 0.09527,-0.97257 -0.136613,-0.82926 -0.570145,0.35237 -1.156928,-1.61601 -0.70144,-2.353 0.242644,-0.3926 0.141159,-0.45042 -0.305768,-0.1742 -0.489777,0.3027 -0.579868,0.1813 -0.33636,-0.45327 0.182918,-0.47669 0.137027,-0.74585 -0.10198,-0.59813 -0.595738,0.36818 -2.243751,-4.08701 -1.785874,-4.82787 0.217405,-0.35177 0.150997,-0.4611 -0.162413,-0.2674 -0.636456,0.39335 -1.283196,-1.04832 -0.812177,-1.81045 0.210015,-0.3398 0.08846,-0.38688 -0.330462,-0.12798 -0.493686,0.30512 -0.589994,0.13164 -0.377676,-0.68027 0.156746,-0.59941 0.09527,-0.97257 -0.136613,-0.82926 -0.570145,0.35237 -1.156927,-1.61601 -0.701439,-2.353 0.242643,-0.3926 0.141158,-0.45042 -0.305768,-0.1742 -0.489778,0.3027 -0.579868,0.1813 -0.336361,-0.45327 0.183317,-0.47772 0.124819,-0.7383 -0.130345,-0.5806 -0.600359,0.37104 -1.216764,-1.5605 -0.742755,-2.32746 0.21739,-0.35175 0.143699,-0.452 -0.183575,-0.24973 -0.661913,0.40909 -1.337063,-1.44967 -0.826578,-2.27566 0.242644,-0.3926 0.141159,-0.45041 -0.305768,-0.1742 -0.489777,0.3027 -0.579868,0.1813 -0.33636,-0.45327 0.183317,-0.47772 0.124819,-0.7383 -0.130345,-0.5806 -0.600359,0.37105 -1.216765,-1.5605 -0.742756,-2.32746 0.21739,-0.35174 0.1437,-0.45199 -0.183575,-0.24972 -0.66191,0.40908 -1.337062,-1.44968 -0.826577,-2.27566 0.242644,-0.3926 0.14116,-0.45042 -0.305768,-0.1742 -0.489779,0.3027 -0.579869,0.1813 -0.336362,-0.45327 0.183319,-0.47772 0.12482,-0.7383 -0.130343,-0.5806 -0.563682,0.34837 -1.230412,-1.53842 -0.793458,-2.24542 0.171861,-0.27808 0.0798,-0.90515 -0.204578,-1.39349 -0.410589,-0.70506 -0.526808,-0.73188 -0.564427,-0.13026 -0.02679,0.42837 -0.253382,0.24347 -0.521415,-0.42546 -0.260722,-0.65069 -0.32484,-1.42448 -0.142484,-1.71953 0.187264,-0.303 0.09361,-0.38942 -0.215195,-0.19856 -0.661913,0.40908 -1.337065,-1.44968 -0.82658,-2.27566 0.217391,-0.35174 0.143702,-0.45199 -0.183573,-0.24972 -0.661913,0.40908 -1.337064,-1.44968 -0.826579,-2.27566 0.242641,-0.3926 0.141159,-0.45042 -0.305769,-0.1742 -0.489779,0.3027 -0.579869,0.1813 -0.336362,-0.45327 0.183319,-0.47772 0.124821,-0.7383 -0.130342,-0.5806 -0.60036,0.37104 -1.216767,-1.5605 -0.742756,-2.32746 0.217391,-0.35175 0.143701,-0.452 -0.183573,-0.24973 -0.661913,0.40909 -1.337065,-1.44967 -0.82658,-2.27566 0.242642,-0.3926 0.14116,-0.45041 -0.305768,-0.1742 -0.489779,0.3027 -0.579869,0.1813 -0.336362,-0.45327 0.182921,-0.47668 0.130044,-0.74153 -0.117506,-0.58853 -0.507244,0.31349 -1.683003,-2.64633 -1.298419,-3.268604 0.352583,-0.570488 -0.286835,-2.051034 -0.759609,-1.758847 -0.578743,0.357685 -1.683249,-2.608209 -1.238993,-3.327028 0.23268,-0.376484 0.167942,-0.48302 -0.167526,-0.275691 -0.661913,0.409086 -1.337064,-1.449675 -0.826579,-2.275657 0.242641,-0.392601 0.141159,-0.450417 -0.305769,-0.1742 -0.489779,0.302697 -0.579869,0.181297 -0.336362,-0.453271 0.183319,-0.477721 0.12482,-0.7383 -0.130343,-0.5806 -0.563681,0.348376 -1.230411,-1.538417 -0.793458,-2.245423 0.171862,-0.27808 0.0798,-0.905142 -0.204578,-1.39348 -0.410589,-0.705061 -0.526808,-0.731886 -0.564427,-0.130269 -0.02678,0.42837 -0.253382,0.243477 -0.521415,-0.425451 -0.260722,-0.65069 -0.32484,-1.424482 -0.142484,-1.719538 0.195134,-0.315733 0.09163,-0.388186 -0.251559,-0.176084 -0.595108,0.367796 -0.725404,0.0035 -0.795774,-2.224614 -0.02508,-0.794066 -0.298143,-1.207844 -0.735757,-1.11491 -0.475271,0.100929 -0.610293,-0.179499 -0.42591,-0.884581 0.172596,-0.660008 0.07383,-0.911137 -0.273837,-0.696268 -0.343966,0.212582 -0.425285,0.02722 -0.221287,-0.504384 0.177385,-0.462256 0.18438,-1.20045 0.01555,-1.640432 -0.247159,-0.644083 -0.390189,-0.668686 -0.734029,-0.126269 -0.319588,0.504162 -0.447818,0.419496 -0.509569,-0.336457 -0.04539,-0.555584 -0.128855,-1.351079 -0.185491,-1.767767 -0.05664,-0.416688 -0.136627,-1.055134 -0.177757,-1.418769 -0.04113,-0.363635 -0.275688,-0.536987 -0.52124,-0.385227 -0.576281,0.356165 -1.775212,-2.512335 -1.342621,-3.21228 0.180688,-0.292358 0.09585,-0.931108 -0.188531,-1.419446 -0.410589,-0.705061 -0.526808,-0.731886 -0.564427,-0.130269 -0.02678,0.42837 -0.253382,0.243477 -0.521415,-0.425451 -0.260722,-0.65069 -0.32484,-1.424482 -0.142484,-1.719537 0.182356,-0.295061 0.09828,-0.392298 -0.186833,-0.216087 -0.655669,0.405223 -2.368224,-3.96943 -1.869696,-4.776067 0.217238,-0.351498 0.151007,-0.461104 -0.161804,-0.267776 -0.58241,0.359947 -2.336887,-3.503866 -1.90693,-4.199553 0.422627,-0.683823 -0.298731,-2.058963 -0.888777,-1.694293 -0.337371,0.208505 -0.417718,0.01909 -0.215466,-0.507981 0.177386,-0.462256 0.18438,-1.20045 0.01555,-1.640432 -0.247158,-0.644083 -0.390189,-0.668686 -0.734028,-0.126269 -0.319588,0.504162 -0.447819,0.419496 -0.50957,-0.336457 -0.0454,-0.555584 -0.128874,-1.351079 -0.18551,-1.767767 -0.05664,-0.416687 -0.136626,-1.055133 -0.177756,-1.418767 -0.04178,-0.369368 -0.335566,-0.49998 -0.66569,-0.295952 -0.397321,0.245557 -0.485248,0.08985 -0.26839,-0.475269 0.177385,-0.462258 0.18438,-1.200453 0.01555,-1.640432 -0.249462,-0.650086 -0.396643,-0.673744 -0.785576,-0.126269 -0.337705,0.475362 -0.401365,0.324172 -0.216241,-0.513564 0.31657,-1.432573 -0.621443,-3.706656 -1.344575,-3.259736 -0.313661,0.193854 -0.390184,-0.01106 -0.194534,-0.520914 0.177386,-0.462258 0.184381,-1.200453 0.01555,-1.640432 -0.249462,-0.650087 -0.396643,-0.673744 -0.785577,-0.126269 -0.337704,0.475362 -0.401364,0.324172 -0.216241,-0.513565 0.316571,-1.432573 -0.621442,-3.706655 -1.344574,-3.259735 -0.313661,0.193853 -0.390184,-0.01106 -0.194534,-0.520914 0.177385,-0.462258 0.18438,-1.200453 0.01555,-1.640433 -0.249461,-0.650086 -0.396643,-0.673743 -0.785576,-0.126269 -0.33934,0.477664 -0.403961,0.334729 -0.222083,-0.491223 0.349937,-1.589158 -1.673685,-6.451607 -2.312058,-5.555518 -0.325768,0.457282 -0.391183,0.302305 -0.213323,-0.505397 C 11.629946,25.540768 9.6063241,20.678319 8.9679502,21.574408 8.6421825,22.03169 8.5767681,21.876713 8.7546272,21.06901 9.1045647,19.479852 7.0809428,14.617403 6.4425688,15.513493 6.1158213,15.97215 6.0497872,15.822299 6.2257492,15.021466 6.3790105,14.32392 5.5146011,11.485659 4.0332137,7.8223654 1.7228096,2.1090135 1.6400769,1.7467597 2.5361265,1.2672086 3.1554434,0.93576019 22.670119,0.76411685 58.769254,0.77260419 l 55.284666,0.0129981 0.5454,1.56453851 c 0.29997,0.8604961 0.39937,1.8008321 0.22088,2.0896356 -0.18827,0.3046293 -0.0797,0.3737857 0.25858,0.1647125 0.54142,-0.3346169 0.78195,0.3648169 0.71971,2.092908 -0.0124,0.3442504 0.17908,0.5012998 0.42551,0.3489991 0.44745,-0.2765353 0.65076,0.6530096 0.56009,2.5606251 -0.0304,0.6400989 0.0583,0.7484519 0.24228,0.2957756 0.40813,-1.0043572 9.29485,21.4202873 8.9329,22.5411933 -0.22438,0.694891 -0.17707,0.741558 0.20637,0.203536 0.40289,-0.565325 0.55821,-0.506818 0.81671,0.307653 0.17556,0.553153 0.17897,1.4355 0.008,1.960771 -0.23512,0.720552 -0.18949,0.783641 0.18586,0.256957 0.4029,-0.565325 0.55821,-0.506818 0.81672,0.307654 0.17556,0.553153 0.17897,1.4355 0.008,1.96077 -0.23511,0.720552 -0.18948,0.783641 0.18587,0.256957 0.4029,-0.565324 0.55821,-0.506817 0.81672,0.307654 0.17556,0.553153 0.17897,1.4355 0.008,1.960771 -0.25656,0.786268 -0.21533,0.821155 0.23335,0.197422 0.46336,-0.644131 0.55814,-0.606303 0.63275,0.252538 0.0483,0.555584 0.0511,1.464722 0.006,2.020306 -0.0618,0.765621 0.0277,0.841166 0.36984,0.312072 0.35971,-0.556297 0.51621,-0.493812 0.77059,0.307654 0.17556,0.553153 0.17897,1.4355 0.008,1.96077 -0.23512,0.720552 -0.18949,0.783641 0.18586,0.256957 0.4029,-0.565324 0.55821,-0.506817 0.81672,0.307654 0.17556,0.553153 0.17897,1.4355 0.008,1.960771 -0.23511,0.720552 -0.18948,0.783641 0.18587,0.256957 0.4029,-0.565325 0.55821,-0.506818 0.81672,0.307653 0.17556,0.553153 0.17897,1.4355 0.008,1.960771 -0.23512,0.72055 -0.18948,0.783639 0.18587,0.256957 0.40289,-0.565325 0.55821,-0.506818 0.81671,0.307654 0.17557,0.553152 0.17898,1.4355 0.008,1.960769 -0.23512,0.720552 -0.18949,0.783641 0.18587,0.256957 0.40289,-0.565321 0.55821,-0.506818 0.81671,0.307652 0.17557,0.553155 0.17897,1.435503 0.008,1.960772 -0.23512,0.720552 -0.18949,0.783641 0.18586,0.256958 0.4029,-0.565322 0.55822,-0.506819 0.81672,0.307652 0.17556,0.553154 0.17897,1.435502 0.008,1.960772 -0.23511,0.720551 -0.18948,0.783641 0.18587,0.256957 0.4029,-0.565322 0.55821,-0.506819 0.81672,0.307652 0.17556,0.553155 0.17897,1.435503 0.008,1.960772 -0.23512,0.720552 -0.18948,0.783641 0.18587,0.256957 0.40289,-0.565321 0.55821,-0.506818 0.81671,0.307652 0.17557,0.553155 0.17898,1.435503 0.008,1.960772 -0.23512,0.720552 -0.18948,0.783641 0.18587,0.256958 0.40289,-0.565322 0.55821,-0.506819 0.81671,0.307652 0.17557,0.553154 0.17897,1.435502 0.008,1.960772 -0.23512,0.720551 -0.18949,0.783641 0.18587,0.256957 0.40289,-0.565322 0.55821,-0.506819 0.81671,0.307652 0.17556,0.553155 0.17897,1.435503 0.008,1.960772 -0.23511,0.720552 -0.18948,0.783641 0.18587,0.256957 0.4029,-0.565321 0.55821,-0.506818 0.81672,0.307653 0.17556,0.553154 0.17897,1.435502 0.008,1.960771 -0.23512,0.720552 -0.18948,0.783641 0.18587,0.256958 0.40289,-0.565322 0.55821,-0.506819 0.81671,0.307652 0.17557,0.553154 0.17898,1.435502 0.008,1.960772 -0.23512,0.720552 -0.18948,0.783641 0.18587,0.256957 0.40289,-0.565322 0.55821,-0.506819 0.81671,0.307652 0.17557,0.553155 0.17898,1.435503 0.008,1.960772 -0.22634,0.693631 -0.17959,0.77064 0.17079,0.281343 0.65146,-0.909729 1.27097,0.638335 0.85392,2.13381 -0.21594,0.774348 -0.16518,0.874626 0.18587,0.367186 0.38922,-0.5626 0.5449,-0.502894 0.80215,0.307652 0.17557,0.553154 0.17898,1.435502 0.008,1.960772 -0.23512,0.720552 -0.18949,0.783641 0.18587,0.256957 0.40289,-0.565322 0.55821,-0.506819 0.81671,0.307652 0.17556,0.553155 0.17897,1.435503 0.008,1.960772 -0.23512,0.720552 -0.18949,0.783641 0.18586,0.256958 0.4029,-0.565322 0.55821,-0.506819 0.81672,0.307652 0.17556,0.553154 0.17897,1.435502 0.008,1.960771 -0.23512,0.720552 -0.18948,0.783641 0.18587,0.256958 0.4029,-0.565322 0.55821,-0.506819 0.81671,0.307652 0.17557,0.553154 0.17898,1.435502 0.008,1.960772 -0.23512,0.720552 -0.18948,0.783641 0.18587,0.256957 0.40289,-0.565322 0.55821,-0.506819 0.81671,0.307652 0.17557,0.553155 0.17898,1.435503 0.008,1.960772 -0.23512,0.720552 -0.18949,0.783641 0.18587,0.256958 0.40289,-0.565322 0.55821,-0.506819 0.81671,0.307652 0.17556,0.553154 0.17897,1.435502 0.008,1.960771 -0.23512,0.720552 -0.18949,0.783641 0.18586,0.256958 0.4029,-0.565322 0.55821,-0.506819 0.81672,0.307652 0.17556,0.553154 0.17897,1.435502 0.008,1.960772 -0.23511,0.720552 -0.18948,0.783641 0.18587,0.256957 0.4029,-0.565322 0.55821,-0.506819 0.81671,0.307652 0.17557,0.553155 0.17898,1.435503 0.008,1.960772 -0.23512,0.720552 -0.18948,0.783641 0.18587,0.256958 0.40289,-0.565322 0.55821,-0.506819 0.81671,0.307652 0.17557,0.553154 0.17898,1.435498 0.008,1.960768 -0.23512,0.72056 -0.18949,0.78364 0.18587,0.25696 0.40289,-0.56532 0.55821,-0.50682 0.81671,0.30765 0.17556,0.55316 0.17897,1.43551 0.008,1.96077 -0.23512,0.72056 -0.18949,0.78365 0.18586,0.25696 0.4029,-0.56532 0.55821,-0.50682 0.81672,0.30765 0.17556,0.55316 0.17897,1.43551 0.008,1.96078 -0.23511,0.72055 -0.18948,0.78364 0.18587,0.25695 0.4029,-0.56532 0.55821,-0.50682 0.81671,0.30766 0.17557,0.55315 0.17898,1.4355 0.008,1.96077 -0.25656,0.78626 -0.21533,0.82116 0.23335,0.19742 0.46336,-0.64413 0.55814,-0.6063 0.63275,0.25254 0.0483,0.55558 0.0511,1.46472 0.006,2.0203 -0.0618,0.76562 0.0277,0.84117 0.36984,0.31208 0.35971,-0.5563 0.51621,-0.49381 0.77059,0.30765 0.17556,0.55315 0.23766,1.32186 0.138,1.70823 -0.0997,0.38638 -0.0729,0.4932 0.0594,0.2374 0.13234,-0.25581 1.12194,1.74805 2.19911,4.45301 1.07717,2.70496 1.80434,5.18711 1.61593,5.51587 -0.18841,0.32876 -0.14976,0.42245 0.0859,0.20819 0.52856,-0.48058 5.90569,12.75562 5.5541,13.67184 -0.13925,0.36288 -0.0538,0.53652 0.19001,0.38587 0.24375,-0.15064 4.99046,11.1047 10.54824,25.01189 6.61412,16.55046 10.25098,25.05495 10.52749,24.6176 0.44752,-0.70787 5.11459,-12.07589 8.25751,-20.11362 10.6197,-27.15892 26.56717,-66.01116 26.89097,-65.51351 0.25814,0.39672 0.36908,0.25673 0.31615,-0.39894 -0.14556,-1.802839 0.0685,-2.843725 0.52655,-2.56063 0.24642,0.152301 0.4379,-0.0045 0.4255,-0.348997 -0.0622,-1.728094 0.17829,-2.427528 0.71971,-2.09291 0.33604,0.207687 0.44693,0.140037 0.26171,-0.159665 -0.17677,-0.286025 0.0446,-1.594197 0.49192,-2.907047 0.60572,-1.777702 0.93786,-2.2128 1.30117,-1.704562 0.36791,0.514673 0.41671,0.461963 0.19852,-0.214425 -0.31511,-0.976863 2.32823,-8.164795 2.82127,-7.67175 0.16621,0.166206 0.28912,0.003 0.27314,-0.362821 -0.0762,-1.743589 0.16672,-2.469753 0.71319,-2.132018 0.34684,0.214359 0.44656,0.139441 0.24611,-0.184894 -0.45547,-0.736961 1.37759,-5.306599 1.92772,-4.805603 0.2395,0.218122 0.28951,0.140855 0.11112,-0.171701 -0.1784,-0.312551 0.0417,-1.642427 0.48898,-2.955277 0.60572,-1.777702 0.93786,-2.2128 1.30117,-1.704562 0.36216,0.506627 0.40952,0.441538 0.18385,-0.252679 -0.38145,-1.173388 4.25106,-13.013012 4.92794,-12.594678 0.26818,0.165741 0.33025,0.04677 0.13795,-0.264392 -0.48609,-0.78651 3.35127,-10.294401 3.8474,-9.532743 0.24585,0.37744 0.35971,0.225393 0.30828,-0.411659 -0.15952,-1.975841 0.0717,-2.84171 0.66161,-2.47715 0.33605,0.207687 0.44694,0.140035 0.26171,-0.159665 -0.17677,-0.286027 0.0446,-1.594198 0.49192,-2.907047 0.60573,-1.777705 0.93786,-2.212803 1.30117,-1.704564 0.37328,0.522188 0.42291,0.479684 0.21134,-0.181012 -0.15206,-0.474897 0.083,-1.918414 0.52232,-3.207816 0.59546,-1.747581 0.923,-2.170647 1.28665,-1.661935 0.36844,0.515423 0.41735,0.463786 0.19983,-0.210996 -0.36567,-1.134398 1.4444,-5.895137 1.85569,-4.880731 0.19018,0.469037 0.27642,0.368208 0.24529,-0.286753 -0.0907,-1.907615 0.11264,-2.83716 0.56009,-2.560625 0.24643,0.152301 0.4379,-0.0047 0.42551,-0.348999 -0.0124,-0.34425 0.0168,-1.080478 0.0648,-1.636062 0.0742,-0.85882 0.16894,-0.896653 0.63229,-0.252538 0.46355,0.644414 0.50367,0.628601 0.26849,-0.105833 -0.40925,-1.278045 1.20367,-5.733645 1.76284,-4.869751 0.32699,0.505182 0.42054,0.420062 0.36017,-0.327717 -0.15952,-1.975841 0.0717,-2.841711 0.66161,-2.477151 0.35489,0.219334 0.44627,0.13896 0.23347,-0.205357 -0.46063,-0.745307 3.3128,-10.2016879 3.92087,-9.8258809 0.25816,0.1595536 0.31609,0.042063 0.12873,-0.2610875 -0.42246,-0.6835692 1.43221,-5.6894354 2.31564,-6.2500215 0.35562,-0.22575879 25.7048,-0.41395091 56.33136,-0.41820467 47.73715,-0.00663 55.68466,0.0944995 55.68466,0.70857137 0,0.393968 0.15227,1.1131058 0.33837,1.598084 0.20845,0.5432035 0.13984,0.7590792 -0.17868,0.5622228 -0.61429,-0.3796497 -1.82421,2.0290435 -1.38014,2.74756 0.39407,0.637628 -0.7881,3.5340777 -1.31062,3.2111441 -0.4844,-0.2993749 -1.10806,1.1950443 -0.74433,1.7835713 0.36748,0.594601 -1.28713,4.582604 -1.77597,4.280488 -0.57596,-0.355964 -1.03441,1.115637 -0.65532,2.103535 0.204,0.53161 0.12268,0.716961 -0.22129,0.504379 -0.35192,-0.217502 -0.44324,0.04845 -0.25881,0.753739 0.21232,0.811912 0.11601,0.985388 -0.37767,0.680272 -0.41892,-0.258903 -0.54048,-0.211827 -0.33046,0.12798 0.4191,0.678131 -0.14342,2.223768 -0.68704,1.887787 -0.22278,-0.137684 -0.2768,0.240088 -0.12006,0.839495 0.17967,0.687043 0.09,0.969313 -0.24261,0.763747 -0.29019,-0.179346 -0.51747,-0.04442 -0.50507,0.299827 0.0622,1.728091 -0.17829,2.427525 -0.71971,2.092908 -0.34363,-0.212378 -0.44667,-0.139624 -0.2509,0.177151 0.41911,0.678131 -0.14341,2.223768 -0.68704,1.887787 -0.22277,-0.137684 -0.27679,0.240089 -0.12005,0.839495 0.17967,0.687043 0.09,0.969314 -0.24261,0.763747 -0.29019,-0.179346 -0.51747,-0.04442 -0.50507,0.299827 0.0622,1.728092 -0.17829,2.427525 -0.71971,2.092908 -0.34363,-0.212378 -0.44667,-0.139624 -0.2509,0.177151 0.47102,0.762131 -0.17572,2.203798 -0.81217,1.810445 -0.31056,-0.191932 -0.38015,-0.08489 -0.16799,0.258384 0.48245,0.780615 -0.75871,4.145959 -1.38606,3.758237 -0.27025,-0.167027 -0.34858,-0.07264 -0.17406,0.209746 0.3997,0.646731 -1.17664,4.749781 -1.70043,4.426057 -0.2128,-0.131516 -0.25866,0.251303 -0.10191,0.85071 0.21232,0.811912 0.11601,0.985388 -0.37768,0.680272 -0.41892,-0.258903 -0.54048,-0.211827 -0.33046,0.12798 0.41911,0.678131 -0.14341,2.223768 -0.68704,1.887787 -0.22277,-0.137684 -0.2768,0.240088 -0.12005,0.839495 0.17966,0.687043 0.09,0.969313 -0.24261,0.763747 -0.29019,-0.179346 -0.51748,-0.04442 -0.50508,0.299827 0.0622,1.728091 -0.17828,2.427525 -0.7197,2.092908 -0.33304,-0.205828 -0.44703,-0.140192 -0.2658,0.153047 0.3997,0.646731 -1.17664,4.74978 -1.70044,4.426056 -0.21279,-0.131517 -0.25865,0.251306 -0.1019,0.85071 0.21231,0.811915 0.11601,0.985389 -0.37768,0.680272 -0.40688,-0.251457 -0.54019,-0.211359 -0.34536,0.103879 0.3997,0.64673 -1.17664,4.749778 -1.70044,4.426054 -0.2128,-0.131516 -0.25865,0.251306 -0.10191,0.85071 0.21232,0.811916 0.11601,0.985389 -0.37767,0.680272 -0.40688,-0.251457 -0.54019,-0.211359 -0.34536,0.10388 0.45759,0.740391 -1.21547,4.725781 -1.82558,4.348711 -0.29329,-0.181262 -0.35689,-0.06541 -0.14887,0.271176 0.51049,0.825981 -0.16466,2.684743 -0.82657,2.275656 -0.31249,-0.193121 -0.40219,-0.103995 -0.20936,0.208016 0.42594,0.689176 -1.62954,6.277174 -2.18313,5.935035 -0.22524,-0.139204 -0.39938,0.02859 -0.38698,0.372812 0.0622,1.728093 -0.17829,2.427528 -0.71971,2.09291 -0.33828,-0.209077 -0.44685,-0.139917 -0.25858,0.16471 0.4247,0.687187 -0.64605,3.748191 -1.19291,3.410214 -0.23153,-0.143098 -0.58544,0.006 -0.78645,0.331179 -0.22825,0.369322 -0.14654,0.456043 0.21764,0.230966 0.89203,-0.551306 0.70823,0.354296 -0.75815,3.735494 -0.9727,2.242857 -1.47155,2.911254 -1.81541,2.432407 -0.33616,-0.46813 -0.383,-0.381156 -0.16094,0.298858 0.36957,1.13171 -1.16028,5.455819 -1.79209,5.06534 -0.23901,-0.14772 -0.2849,0.12144 -0.10198,0.598126 0.21238,0.553463 0.13604,0.745235 -0.21122,0.530613 -0.35193,-0.217506 -0.44325,0.04844 -0.25881,0.753735 0.21232,0.811916 0.11601,0.985389 -0.37768,0.680272 -0.41284,-0.255144 -0.54032,-0.211586 -0.33815,0.115542 0.43818,0.70899 -0.65473,3.742822 -1.22202,3.392223 -0.24755,-0.152997 -0.30042,0.111844 -0.1175,0.588533 0.21238,0.55346 0.13604,0.74523 -0.21122,0.53061 -0.35193,-0.21751 -0.44325,0.0484 -0.25881,0.75374 0.21232,0.81191 0.11601,0.98538 -0.37768,0.68027 -0.41284,-0.25515 -0.54032,-0.21159 -0.33815,0.11554 0.43818,0.70899 -0.65473,3.74282 -1.22202,3.39222 -0.24755,-0.153 -0.30042,0.11185 -0.11751,0.58853 0.21239,0.55347 0.13605,0.74524 -0.21121,0.53062 -0.35193,-0.21751 -0.44325,0.0484 -0.25881,0.75373 0.21231,0.81192 0.11601,0.98539 -0.37768,0.68027 -0.41284,-0.25514 -0.54033,-0.21158 -0.33815,0.11554 0.43818,0.70899 -0.65473,3.74283 -1.22202,3.39223 -0.24755,-0.153 -0.30043,0.11184 -0.11751,0.58853 0.21239,0.55346 0.13605,0.74523 -0.21121,0.53061 -0.35193,-0.21751 -0.44325,0.0484 -0.25882,0.75374 0.21232,0.81191 0.11602,0.98538 -0.37767,0.68027 -0.41284,-0.25515 -0.54033,-0.21159 -0.33815,0.11554 0.43818,0.70899 -0.65474,3.74282 -1.22202,3.39222 -0.24755,-0.15299 -0.30043,0.11185 -0.11751,0.58853 0.21239,0.55347 0.13605,0.74524 -0.21122,0.53062 -0.35192,-0.21751 -0.44324,0.0484 -0.25881,0.75373 0.21232,0.81192 0.11601,0.98539 -0.37767,0.68027 -0.41284,-0.25514 -0.54033,-0.21158 -0.33815,0.11554 0.43818,0.709 -0.65474,3.74283 -1.22202,3.39223 -0.24755,-0.153 -0.30043,0.11184 -0.11751,0.58853 0.21239,0.55346 0.13605,0.74523 -0.21122,0.53061 -0.35192,-0.2175 -0.44324,0.0484 -0.25881,0.75374 0.21232,0.81191 0.11601,0.98539 -0.37767,0.68027 -0.41284,-0.25515 -0.54033,-0.21159 -0.33815,0.11554 0.43818,0.70899 -0.65474,3.74282 -1.22202,3.39222 -0.24755,-0.15299 -0.30043,0.11185 -0.11751,0.58853 0.21238,0.55347 0.13605,0.74524 -0.21122,0.53062 -0.35193,-0.21751 -0.44324,0.0484 -0.25881,0.75373 0.21232,0.81192 0.11601,0.98539 -0.37768,0.68027 -0.41283,-0.25514 -0.54032,-0.21158 -0.33814,0.11555 0.43817,0.70899 -0.65474,3.74282 -1.22203,3.39222 -0.24754,-0.153 -0.30042,0.11184 -0.1175,0.58853 0.21238,0.55346 0.13605,0.74523 -0.21122,0.53061 -0.35193,-0.2175 -0.44324,0.0484 -0.25881,0.75374 0.21232,0.81191 0.11601,0.98539 -0.37768,0.68027 -0.41284,-0.25515 -0.54032,-0.21159 -0.33815,0.11554 0.43818,0.70899 -0.65473,3.74282 -1.22202,3.39222 -0.24755,-0.15299 -0.30042,0.11185 -0.1175,0.58853 0.21238,0.55347 0.13604,0.74524 -0.21122,0.53062 -0.35193,-0.21751 -0.44325,0.0484 -0.25881,0.75373 0.21232,0.81192 0.11601,0.98539 -0.37768,0.68027 -0.41284,-0.25514 -0.54032,-0.21158 -0.33815,0.11555 0.43818,0.70899 -0.65473,3.74282 -1.22202,3.39222 -0.24755,-0.153 -0.30042,0.11184 -0.1175,0.58853 0.21238,0.55346 0.13604,0.74523 -0.21122,0.53061 -0.35193,-0.2175 -0.44325,0.0484 -0.25881,0.75374 0.21232,0.81191 0.11601,0.98539 -0.37768,0.68027 -0.41284,-0.25514 -0.54033,-0.21159 -0.33815,0.11554 0.43818,0.70899 -0.65473,3.74282 -1.22202,3.39222 -0.24755,-0.15299 -0.30042,0.11185 -0.11751,0.58853 0.21239,0.55347 0.13605,0.74524 -0.21121,0.53062 -0.35193,-0.21751 -0.44325,0.0484 -0.25882,0.75373 0.21232,0.81192 0.11602,0.98539 -0.37767,0.68027 -0.41284,-0.25514 -0.54033,-0.21158 -0.33815,0.11555 0.43818,0.70899 -0.65474,3.74282 -1.22202,3.39222 -0.24755,-0.153 -0.30043,0.11184 -0.11751,0.58853 0.21239,0.55346 0.13605,0.74523 -0.21122,0.53061 -0.35192,-0.2175 -0.44324,0.0484 -0.25881,0.75374 0.21232,0.81191 0.11601,0.98539 -0.37767,0.68027 -0.41284,-0.25514 -0.54033,-0.21159 -0.33815,0.11554 0.43818,0.70899 -0.65474,3.74282 -1.22202,3.39222 -0.24755,-0.15299 -0.30043,0.11185 -0.11751,0.58853 0.21239,0.55347 0.13605,0.74524 -0.21122,0.53062 -0.35192,-0.21751 -0.44324,0.0484 -0.25881,0.75373 0.21232,0.81192 0.11601,0.98539 -0.37767,0.68028 -0.41284,-0.25515 -0.54033,-0.21159 -0.33815,0.11554 0.43818,0.70899 -0.65474,3.74282 -1.22202,3.39222 -0.24755,-0.153 -0.30043,0.11184 -0.11751,0.58853 0.21238,0.55346 0.13605,0.74524 -0.21122,0.53061 -0.35193,-0.2175 -0.44324,0.0484 -0.25881,0.75374 0.21232,0.81191 0.11601,0.98539 -0.37768,0.68027 -0.41283,-0.25514 -0.54032,-0.21159 -0.33814,0.11554 0.43818,0.70899 -0.65474,3.74282 -1.22203,3.39223 -0.24754,-0.153 -0.30042,0.11184 -0.1175,0.58853 0.21238,0.55346 0.13605,0.74523 -0.21122,0.53061 -0.35193,-0.21751 -0.44324,0.0484 -0.25881,0.75373 0.21232,0.81192 0.11601,0.98539 -0.37768,0.68028 -0.41284,-0.25515 -0.54032,-0.21159 -0.33814,0.11554 0.43817,0.70899 -0.65474,3.74282 -1.22203,3.39222 -0.24754,-0.153 -0.30042,0.11184 -0.1175,0.58853 0.21238,0.55346 0.13604,0.74524 -0.21122,0.53061 -0.35193,-0.2175 -0.44325,0.0484 -0.25881,0.75374 0.21232,0.81191 0.11601,0.98539 -0.37768,0.68027 -0.41284,-0.25514 -0.54032,-0.21159 -0.33815,0.11554 0.43818,0.70899 -0.65473,3.74282 -1.22202,3.39223 -0.24755,-0.153 -0.30042,0.11184 -0.1175,0.58853 0.21238,0.55346 0.13604,0.74523 -0.21122,0.53061 -0.35193,-0.21751 -0.44325,0.0484 -0.25881,0.75373 0.21232,0.81192 0.11601,0.98539 -0.37768,0.68028 -0.41284,-0.25515 -0.54032,-0.21159 -0.33815,0.11554 0.43818,0.70899 -0.65473,3.74282 -1.22202,3.39222 -0.24755,-0.153 -0.30042,0.11185 -0.11751,0.58853 0.21239,0.55346 0.13605,0.74524 -0.21121,0.53061 -0.35193,-0.2175 -0.44325,0.0484 -0.25881,0.75374 0.21231,0.81191 0.11601,0.98539 -0.37768,0.68027 -0.41284,-0.25514 -0.54033,-0.21159 -0.33815,0.11554 0.43818,0.70899 -0.65473,3.74282 -1.22202,3.39223 -0.24755,-0.153 -0.30043,0.11184 -0.11751,0.58853 0.21239,0.55346 0.13605,0.74523 -0.21121,0.53061 -0.35193,-0.21751 -0.44325,0.0484 -0.25882,0.75373 0.21232,0.81192 0.11601,0.98539 -0.37767,0.68028 -0.41284,-0.25515 -0.54033,-0.21159 -0.33815,0.11554 0.43818,0.70899 -0.65474,3.74282 -1.22202,3.39222 -0.24755,-0.153 -0.30043,0.11185 -0.11751,0.58853 0.21239,0.55346 0.13605,0.74524 -0.21122,0.53061 -0.35192,-0.2175 -0.44324,0.0484 -0.25881,0.75374 0.21232,0.81191 0.11601,0.98539 -0.37767,0.68027 -0.41284,-0.25514 -0.54033,-0.21158 -0.33815,0.11554 0.43818,0.70899 -0.65474,3.74283 -1.22202,3.39223 -0.24755,-0.153 -0.30043,0.11184 -0.11751,0.58853 0.21238,0.55346 0.13605,0.74523 -0.21122,0.53061 -0.35192,-0.21751 -0.44324,0.0484 -0.25881,0.75373 0.21232,0.81192 0.11601,0.98539 -0.37767,0.68028 -0.41284,-0.25515 -0.54033,-0.21159 -0.33815,0.11554 0.43818,0.70899 -0.65474,3.74282 -1.22202,3.39222 -0.24755,-0.153 -0.30043,0.11185 -0.11751,0.58853 0.21238,0.55346 0.13605,0.74524 -0.21122,0.53061 -0.35193,-0.2175 -0.44324,0.0484 -0.25881,0.75374 0.21232,0.81192 0.11601,0.98539 -0.37768,0.68027 -0.41284,-0.25514 -0.54032,-0.21158 -0.33814,0.11554 0.43817,0.70899 -0.65474,3.74283 -1.22203,3.39223 -0.24754,-0.153 -0.30042,0.11184 -0.1175,0.58853 0.21238,0.55346 0.13605,0.74523 -0.21122,0.53061 -0.35193,-0.21751 -0.44325,0.0484 -0.25881,0.75374 0.21232,0.81191 0.11601,0.98538 -0.37768,0.68027 -0.41284,-0.25515 -0.54032,-0.21159 -0.33815,0.11554 0.43818,0.70899 -0.65473,3.74282 -1.22202,3.39222 -0.24755,-0.153 -0.30042,0.11185 -0.1175,0.58853 0.21238,0.55346 0.13604,0.74524 -0.21122,0.53062 -0.35193,-0.21751 -0.44325,0.0484 -0.25881,0.75373 0.21232,0.81192 0.11601,0.98539 -0.37768,0.68027 -0.41284,-0.25514 -0.54032,-0.21158 -0.33815,0.11554 0.43818,0.70899 -0.65473,3.74283 -1.22202,3.39223 -0.24755,-0.153 -0.30042,0.11184 -0.11751,0.58853 0.21239,0.55346 0.13605,0.74523 -0.21121,0.53061 -0.35193,-0.21751 -0.44325,0.0484 -0.25881,0.75374 0.21231,0.81191 0.11601,0.98538 -0.37768,0.68027 -0.41284,-0.25515 -0.54033,-0.21159 -0.33815,0.11554 0.43818,0.70899 -0.65473,3.74282 -1.22202,3.39222 -0.24755,-0.15299 -0.30042,0.11185 -0.11751,0.58853 0.21239,0.55347 0.13605,0.74524 -0.21121,0.53062 -0.35193,-0.21751 -0.44325,0.0484 -0.25882,0.75373 0.21232,0.81192 0.11602,0.98539 -0.37767,0.68027 -0.41284,-0.25514 -0.54033,-0.21158 -0.33815,0.11554 0.43818,0.709 -0.65474,3.74283 -1.22202,3.39223 -0.24755,-0.153 -0.30043,0.11184 -0.11751,0.58853 0.21239,0.55346 0.13605,0.74523 -0.21122,0.53061 -0.35192,-0.21751 -0.44324,0.0484 -0.25881,0.75374 0.21232,0.81191 0.11601,0.98539 -0.37767,0.68027 -0.41284,-0.25515 -0.54033,-0.21159 -0.33815,0.11554 0.43818,0.70899 -0.65474,3.74282 -1.22202,3.39222 -0.24755,-0.15299 -0.30043,0.11185 -0.11751,0.58853 0.21239,0.55347 0.13605,0.74524 -0.21122,0.53062 -0.35192,-0.21751 -0.44324,0.0484 -0.25881,0.75373 0.21232,0.81192 0.11601,0.98539 -0.37767,0.68027 -0.41284,-0.25514 -0.54033,-0.21158 -0.33815,0.11554 0.43818,0.709 -0.65474,3.74283 -1.22202,3.39223 -0.24755,-0.153 -0.31474,0.0746 -0.1493,0.50567 0.16543,0.43112 0.0563,0.78385 -0.24248,0.78385 -0.29919,0 -0.39836,0.37759 -0.22074,0.84047 0.23418,0.61026 0.13929,0.72722 -0.34643,0.42704 -0.42433,-0.26226 -0.5477,-0.21727 -0.33739,0.12303 0.18236,0.29506 0.11824,1.06885 -0.14248,1.71954 -0.26803,0.66893 -0.49463,0.85382 -0.52142,0.42545 -0.0376,-0.60161 -0.15384,-0.57479 -0.56442,0.13027 -0.28438,0.48834 -0.3788,1.11159 -0.20981,1.38502 0.42775,0.69211 -7.96173,20.68548 -8.532,20.33303 -0.25462,-0.15736 -0.31691,-0.0498 -0.13842,0.23898 0.47864,0.77445 -0.67651,3.72937 -1.30584,3.34041 -0.30026,-0.18557 -0.38626,-0.0911 -0.19652,0.21595 0.49804,0.80585 -1.66166,6.25733 -2.3182,5.85157 -0.31041,-0.19185 -0.3995,-0.10183 -0.20718,0.20935 0.39252,0.63511 -1.60736,6.29076 -2.11389,5.97807 -0.18715,-0.11554 -0.37023,0.27951 -0.40684,0.87789 -0.0968,1.58135 -3.27689,8.93889 -3.73994,8.6527 -0.21584,-0.1334 -0.26419,0.24789 -0.10744,0.84729 0.21232,0.81192 0.11601,0.98539 -0.37768,0.68027 -0.42465,-0.26245 -0.54062,-0.21206 -0.32287,0.14027 0.48301,0.78152 -1.18542,4.72186 -1.83053,4.32317 -0.31046,-0.19188 -0.37931,-0.0842 -0.1664,0.26033 0.51048,0.82598 -0.16467,2.68474 -0.82658,2.27565 -0.33547,-0.20732 -0.40021,-0.10079 -0.16753,0.2757 0.44692,0.72313 -0.66196,3.68365 -1.24482,3.32343 -0.21964,-0.13575 -0.2711,0.24361 -0.11436,0.84301 0.21232,0.81192 0.11602,0.98539 -0.37767,0.68027 -0.40688,-0.25145 -0.54019,-0.21136 -0.34536,0.10388 0.3997,0.64673 -1.17664,4.74978 -1.70044,4.42606 -0.2128,-0.13152 -0.25865,0.2513 -0.10191,0.85071 0.21232,0.81191 0.11601,0.98538 -0.37767,0.68027 -0.40688,-0.25146 -0.54019,-0.21136 -0.34536,0.10388 0.3997,0.64673 -1.17664,4.74977 -1.70044,4.42605 -0.2128,-0.13152 -0.25865,0.25131 -0.10191,0.85071 0.21232,0.81192 0.11601,0.98539 -0.37767,0.68027 -0.40688,-0.25145 -0.54019,-0.21136 -0.34536,0.10388 0.3997,0.64673 -1.17665,4.74978 -1.70044,4.42606 -0.2128,-0.13152 -0.25865,0.2513 -0.10191,0.85071 0.21232,0.81191 0.11601,0.98538 -0.37768,0.68027 -0.40687,-0.25146 -0.54018,-0.21136 -0.34536,0.10388 0.39971,0.64673 -1.17664,4.74977 -1.70043,4.42605 -0.2128,-0.13152 -0.25866,0.25131 -0.10191,0.85071 0.21232,0.81192 0.11601,0.98539 -0.37768,0.68027 -0.41892,-0.2589 -0.54047,-0.21182 -0.33046,0.12798 0.41911,0.67814 -0.14341,2.22377 -0.68704,1.88779 -0.22277,-0.13768 -0.27679,0.24009 -0.12005,0.8395 0.17967,0.68704 0.09,0.96931 -0.24261,0.76374 -0.29019,-0.17934 -0.51747,-0.0444 -0.50507,0.29983 0.0622,1.72809 -0.17829,2.42753 -0.71971,2.09291 -0.33304,-0.20583 -0.44703,-0.14019 -0.2658,0.15305 0.3997,0.64673 -1.17664,4.74978 -1.70043,4.42605 -0.2128,-0.13152 -0.25866,0.25131 -0.10191,0.85071 0.21232,0.81192 0.11601,0.98539 -0.37768,0.68027 -0.40687,-0.25145 -0.54019,-0.21136 -0.34536,0.10388 0.3997,0.64673 -1.17664,4.74978 -1.70044,4.42606 -0.21279,-0.13152 -0.25865,0.2513 -0.1019,0.85071 0.21231,0.81191 0.11601,0.98539 -0.37768,0.68027 -0.41892,-0.2589 -0.54048,-0.21182 -0.33046,0.12798 0.47102,0.76213 -0.17572,2.2038 -0.81218,1.81045 -0.31056,-0.19194 -0.38015,-0.0849 -0.16799,0.25838 0.48245,0.78061 -0.75871,4.14596 -1.38605,3.75824 -0.27026,-0.16703 -0.34859,-0.0726 -0.17406,0.20974 0.3997,0.64673 -1.17664,4.74978 -1.70044,4.42606 -0.2128,-0.13152 -0.25865,0.2513 -0.10191,0.85071 0.21232,0.81191 0.11601,0.98539 -0.37767,0.68027 -0.40688,-0.25146 -0.54019,-0.21136 -0.34536,0.10388 0.3997,0.64673 -1.17665,4.74978 -1.70044,4.42605 -0.2128,-0.13151 -0.25865,0.25131 -0.10191,0.85071 0.21232,0.81192 0.11601,0.98539 -0.37767,0.68027 -0.40688,-0.25145 -0.54019,-0.21135 -0.34537,0.10388 0.39971,0.64673 -1.17664,4.74978 -1.70043,4.42606 -0.2128,-0.13152 -0.25866,0.2513 -0.10191,0.85071 0.21232,0.81191 0.11601,0.98539 -0.37768,0.68027 -0.41892,-0.2589 -0.54047,-0.21182 -0.33046,0.12798 0.47102,0.76213 -0.17572,2.2038 -0.81218,1.81045 -0.31055,-0.19194 -0.38014,-0.0849 -0.16798,0.25838 0.48245,0.78061 -0.75871,4.14596 -1.38606,3.75824 -0.27026,-0.16703 -0.34188,-0.0618 -0.15916,0.23385 0.47102,0.76213 -0.17572,2.2038 -0.81218,1.81044 -0.31055,-0.19193 -0.38014,-0.0849 -0.16798,0.25838 0.48244,0.78062 -0.75872,4.14596 -1.38606,3.75824 -0.27026,-0.16703 -0.34188,-0.0618 -0.15916,0.23385 0.47102,0.76213 -0.17572,2.2038 -0.81218,1.81045 -0.31055,-0.19194 -0.38014,-0.0849 -0.16799,0.25838 0.48245,0.78062 -0.75871,4.14596 -1.38605,3.75824 -0.27026,-0.16703 -0.34188,-0.0618 -0.15916,0.23385 0.43907,0.71043 -0.15567,2.21619 -0.73414,1.85867 -0.24868,-0.15369 -0.48581,0.0181 -0.52694,0.38171 -0.0411,0.36363 -0.12112,1.00208 -0.17775,1.41877 -0.0566,0.41669 -0.13663,1.16878 -0.17776,1.67131 -0.0452,0.55252 -0.30528,0.77123 -0.6579,0.5533 -0.34363,-0.21238 -0.44667,-0.13962 -0.25089,0.17715 0.4191,0.67813 -0.14341,2.22377 -0.68704,1.88779 -0.22278,-0.13768 -0.2768,0.24009 -0.12005,0.83949 0.17966,0.68705 0.09,0.96932 -0.24262,0.76375 -0.29018,-0.17934 -0.51747,-0.0445 -0.50507,0.29983 0.0622,1.72809 -0.17829,2.42753 -0.71971,2.09291 -0.34363,-0.21238 -0.44667,-0.13963 -0.25089,0.17715 0.47101,0.76213 -0.17573,2.2038 -0.81218,1.81044 -0.31833,-0.19673 -0.37922,-0.0834 -0.15239,0.28362 0.44379,0.71808 -1.6643,6.2153 -2.24568,5.85598 -0.48589,-0.30029 -1.11097,1.19238 -0.74638,1.78231 0.36749,0.5946 -1.28713,4.5826 -1.77596,4.28049 -0.4881,-0.30166 -1.1153,1.18841 -0.74942,1.78042 0.36455,0.58985 -1.28513,4.58384 -1.76962,4.28441 -0.21576,-0.13334 -0.87984,0.89091 -1.47574,2.27612 -0.5959,1.38521 -1.19412,2.51856 -1.32938,2.51856 -0.13525,0 -0.66008,-0.68103 -1.16628,-1.51341 z"
       id="path1595"
       inkscape:connector-curvature="0"
       transform="scale(0.26458333)" />
  </g>
</svg>
