<?xml version="1.0" encoding="UTF-8" standalone="no"?>
<svg
   xmlns:dc="http://purl.org/dc/elements/1.1/"
   xmlns:cc="http://creativecommons.org/ns#"
   xmlns:rdf="http://www.w3.org/1999/02/22-rdf-syntax-ns#"
   xmlns:svg="http://www.w3.org/2000/svg"
   xmlns="http://www.w3.org/2000/svg"
   xmlns:sodipodi="http://sodipodi.sourceforge.net/DTD/sodipodi-0.dtd"
   xmlns:inkscape="http://www.inkscape.org/namespaces/inkscape"
   sodipodi:docname="512_bridge.svg"
   inkscape:version="1.0beta1 (32d4812, 2019-09-19)"
   id="svg859"
   version="1.1"
   viewBox="0 0 70 30"
   height="30mm"
   width="70mm">
  <defs
     id="defs853" />
  <sodipodi:namedview
     inkscape:window-maximized="0"
     inkscape:window-y="168"
     inkscape:window-x="693"
     inkscape:window-height="1209"
     inkscape:window-width="1600"
     showgrid="true"
     inkscape:document-rotation="0"
     inkscape:current-layer="layer1"
     inkscape:document-units="mm"
     inkscape:cy="184.36417"
     inkscape:cx="122.72075"
     inkscape:zoom="2"
     inkscape:pageshadow="2"
     inkscape:pageopacity="0.0"
     borderopacity="1.0"
     bordercolor="#666666"
     pagecolor="#ffffff"
     id="base">
    <inkscape:grid
       spacingy="0.50000001"
       spacingx="5.0000001"
       units="mm"
       id="grid1422"
       type="xygrid" />
  </sodipodi:namedview>
  <metadata
     id="metadata856">
    <rdf:RDF>
      <cc:Work
         rdf:about="">
        <dc:format>image/svg+xml</dc:format>
        <dc:type
           rdf:resource="http://purl.org/dc/dcmitype/StillImage" />
        <dc:title></dc:title>
      </cc:Work>
    </rdf:RDF>
  </metadata>
  <g
     id="layer1"
     inkscape:groupmode="layer"
     inkscape:label="Layer 1">
    <path
       inkscape:connector-curvature="0"
       id="path1424"
       d="M 10,30 0,5 5,2.5 15,25 H 55 L 65.000001,2.5 69.999999,5 60.000001,30 Z"
       style="fill:none;stroke:#000000;stroke-width:0.264583px;stroke-linecap:butt;stroke-linejoin:miter;stroke-opacity:1" />
    <path
       transform="scale(0.26458333)"
       inkscape:connector-curvature="0"
       id="path1426"
       d="M 37.863502,111.53917 C 37.625631,110.92042 29.229815,89.918168 19.206133,64.867493 L 0.98125661,19.320812 9.65468,14.992493 c 4.770383,-2.380576 8.736996,-4.32832 8.814696,-4.32832 0.0777,0 8.569795,19.00834 18.871321,42.240755 l 18.730049,42.240755 76.234534,-0.115755 76.23453,-0.115755 18.65877,-41.97663 c 10.26232,-23.087147 18.73887,-42.056742 18.83679,-42.154655 0.27777,-0.277772 17.28534,8.340367 17.28568,8.759066 1.7e-4,0.204721 -8.34763,21.240969 -18.55066,46.747219 L 226.21942,112.66417 H 132.25771 38.295995 Z"
       style="fill:#000000;stroke:#00ffff;stroke-width:0.5" />
  </g>
</svg>
